<?xml version="1.0" encoding="utf-8"?>
<!-- Generator: Adobe Illustrator 22.0.1, SVG Export Plug-In . SVG Version: 6.00 Build 0)  -->
<svg version="1.1" id="Layer_1" xmlns="http://www.w3.org/2000/svg" xmlns:xlink="http://www.w3.org/1999/xlink" x="0px" y="0px"
	 viewBox="0 0 940.7 731.3" style="enable-background:new 0 0 940.7 731.3;" xml:space="preserve">
<style type="text/css">
	.st0{fill:none;stroke:#663434;stroke-width:5;stroke-miterlimit:10;}
	.st1{fill:none;stroke:#EF3B39;stroke-width:5;stroke-miterlimit:10;}
	.st2{fill:#FFFFFF;stroke:#EF3B39;stroke-width:5;stroke-miterlimit:10;}
	.st3{fill:none;stroke:#808285;stroke-width:0.75;stroke-miterlimit:10;stroke-dasharray:6;}
	.st4{fill:none;}
	.st5{fill:#333333;}
	.st6{font-family:'AcuminProCond-Regular';}
	.st7{font-size:17.5479px;}
	.st8{fill:#EF3B39;}
	.st9{font-family:'AcuminProCond-Semibold';}
	.st10{font-size:21.6903px;}
	.st11{fill:#FFFFFF;stroke:#663434;stroke-width:5;stroke-miterlimit:10;}
	.st12{fill:#663434;}
	.st13{fill:#6D6E71;}
	.st14{font-size:21.1621px;}
	.st15{fill:#808285;}
	.st16{fill:none;stroke:#666766;stroke-miterlimit:10;}
	.st17{font-size:32.1777px;}
	.st18{font-size:24.1777px;}
</style>
<line class="st0" x1="472.3" y1="544.2" x2="472.3" y2="392.9"/>
<line class="st1" x1="268.4" y1="384.2" x2="268.4" y2="279.8"/>
<line class="st1" x1="689.2" y1="277.3" x2="689.2" y2="125.8"/>
<circle class="st2" cx="690.3" cy="200.7" r="18"/>
<line class="st3" x1="142.5" y1="413" x2="742.9" y2="413"/>
<circle class="st2" cx="268.5" cy="332.2" r="18"/>
<g>
	<rect x="97.7" y="404.4" class="st4" width="35.6" height="22.3"/>
	<text transform="matrix(1 0 0 1 125.6611 416.9397)" class="st5 st6 st7">0</text>
</g>
<g>
	<rect x="97.7" y="285" class="st4" width="35.6" height="22.3"/>
	<text transform="matrix(1 0 0 1 126.0122 297.4489)" class="st5 st6 st7">5</text>
</g>
<line class="st1" x1="472.3" y1="432" x2="472.3" y2="320.7"/>
<circle class="st2" cx="472.4" cy="374.9" r="18"/>
<g>
	<rect x="250.4" y="323.5" class="st4" width="35.6" height="22.3"/>
	<text transform="matrix(1 0 0 1 263.6367 338.9358)" class="st8 st9 st10">3</text>
</g>
<g>
	<rect x="672.4" y="192.1" class="st4" width="35.6" height="22.3"/>
	<text transform="matrix(1 0 0 1 685.4912 207.509)" class="st8 st9 st10">9</text>
</g>
<line class="st0" x1="268.2" y1="620.6" x2="268.2" y2="470.3"/>
<circle class="st11" cx="268.5" cy="545" r="18"/>
<line class="st0" x1="689.3" y1="544.2" x2="689.3" y2="392.9"/>
<g>
	<rect x="249.8" y="536.2" class="st4" width="35.6" height="22.3"/>
	<text transform="matrix(1 0 0 1 259.9033 551.6359)" class="st12 st9 st10">-5</text>
</g>
<circle class="st11" cx="689.3" cy="468.4" r="18"/>
<g>
	<rect x="670.4" y="459.3" class="st4" width="35.6" height="22.3"/>
	<text transform="matrix(1 0 0 1 680.7334 474.7063)" class="st12 st9 st10">-2</text>
</g>
<g>
	<rect x="93" y="537.2" class="st4" width="35.6" height="22.3"/>
	<text transform="matrix(1 0 0 1 116.518 549.7346)" class="st5 st6 st7">-5</text>
</g>
<g>
	<rect x="190.6" y="678.3" class="st4" width="153.2" height="44.2"/>
	<text transform="matrix(1 0 0 1 239.8359 693.3166)"><tspan x="0" y="0" class="st13 st9 st14">Control</tspan><tspan x="-45.5" y="25.4" class="st13 st9 st14"> (Voluntary Appeal)</tspan></text>
</g>
<g>
	<rect x="384.8" y="679.3" class="st4" width="175.8" height="44.2"/>
	<text transform="matrix(1 0 0 1 424.3237 694.341)"><tspan x="0" y="0" class="st13 st9 st14">Treatment #1</tspan><tspan x="-37" y="25.4" class="st13 st9 st14">(Free Cholesterol Test)</tspan></text>
</g>
<g>
	<rect x="606.8" y="679.3" class="st4" width="164.1" height="44.2"/>
	<text transform="matrix(1 0 0 1 638.9717 694.341)"><tspan x="0" y="0" class="st13 st9 st14">Treatment #2</tspan><tspan x="-28" y="25.4" class="st13 st9 st14">(Free Lottery Ticket )</tspan></text>
</g>
<g>
	<rect x="746.6" y="428.6" class="st4" width="185.8" height="49.3"/>
	<text transform="matrix(1 0 0 1 746.5889 444.0442)" class="st12 st9 st10">Frequent blood donors</text>
</g>
<g>
	<rect x="746.5" y="159" class="st4" width="215.3" height="49.3"/>
	<text transform="matrix(1 0 0 1 746.4932 174.465)" class="st8 st9 st10">Infrequent blood donors</text>
</g>
<g>
	<g>
		<path class="st12" d="M714.8,469.7c13.6-1.2,25.5-8.3,33.6-19.3c0.5-0.6-0.6-1.3-1.1-0.6c-7.8,10.5-19.4,17.5-32.5,18.7
			C714,468.5,714,469.7,714.8,469.7L714.8,469.7z"/>
	</g>
</g>
<rect x="71.2" y="636.3" class="st4" width="136.6" height="49.3"/>
<text transform="matrix(1 0 0 1 93.0137 651.342)"><tspan x="0" y="0" class="st13 st9 st14">Fewer blood </tspan><tspan x="8.8" y="25.4" class="st13 st9 st14">donations</tspan></text>
<rect x="73" y="108.6" class="st4" width="136.6" height="42.8"/>
<text transform="matrix(1 0 0 1 99.084 123.6442)"><tspan x="0" y="0" class="st13 st9 st14">More blood </tspan><tspan x="4.6" y="25.4" class="st13 st9 st14">donations</tspan></text>
<g>
	<rect x="453.8" y="366.5" class="st4" width="35.6" height="22.3"/>
	<text transform="matrix(1 0 0 1 468.6894 381.9358)" class="st8 st9 st10">1</text>
</g>
<g>
	<rect x="8.5" y="349" class="st4" width="127.4" height="94.5"/>
	<text transform="matrix(1 0 0 1 8.4541 361.4778)"><tspan x="0" y="0" class="st5 st6 st7">% change</tspan><tspan x="0" y="21.1" class="st5 st6 st7"> (pre/post) </tspan></text>
</g>
<g>
	<g>
		<path class="st15" d="M105,409.9c-13.1-1.1-24.7-8.1-32.5-18.7c-0.5-0.6-1.6,0-1.1,0.6c8.1,10.9,20,18.1,33.6,19.3
			C105.8,411.2,105.8,410,105,409.9L105,409.9z"/>
	</g>
</g>
<g>
	<g>
		<path class="st4" d="M138.1,153.4v11.5h5.3v-11.5H138.1z"/>
		<g>
			<polygon class="st13" points="140.3,159.1 141.3,159.1 141.3,159.1 143.3,159.1 140.7,153.4 138.1,159.1 140.3,159.1 			"/>
		</g>
	</g>
	<g>
		<path class="st4" d="M138.1,635.3v-11.5h5.3v11.5H138.1z"/>
		<g>
			<polygon class="st13" points="140.3,629.6 141.3,629.6 141.3,629.6 143.3,629.6 140.7,635.3 138.1,629.6 140.3,629.6 			"/>
		</g>
	</g>
	<line class="st16" x1="140.7" y1="159.1" x2="140.7" y2="631.4"/>
</g>
<g>
	<g>
		<path class="st8" d="M714.4,198.9c13.6-1.2,25.5-8.3,33.6-19.3c0.5-0.6-0.6-1.3-1.1-0.6c-7.8,10.5-19.4,17.5-32.5,18.7
			C713.7,197.8,713.6,199,714.4,198.9L714.4,198.9z"/>
	</g>
</g>
<g>
	<rect x="95" y="165" class="st4" width="35.6" height="22.3"/>
	<text transform="matrix(1 0 0 1 118.5088 177.5163)" class="st5 st6 st7">10</text>
</g>
<rect x="139.3" y="6" class="st4" width="779.1" height="44.6"/>
<text transform="matrix(1 0 0 1 139.2747 28.854)" class="st5 st9 st17">A Randomized Controlled Trial to Increase Blood Donations</text>
<rect x="139.3" y="58" class="st4" width="779.1" height="44.6"/>
<text transform="matrix(1 0 0 1 139.2747 75.166)" class="st5 st9 st18">Financial incentives can increase donations, but only among infrequent donors</text>
<circle class="st11" cx="472.3" cy="468.4" r="18"/>
<g>
	<rect x="453.4" y="459.3" class="st4" width="35.6" height="22.3"/>
	<text transform="matrix(1 0 0 1 463.7334 474.7063)" class="st12 st9 st10">-2</text>
</g>
</svg>
