<?xml version="1.0" encoding="utf-8"?>
<!-- Generator: Adobe Illustrator 22.0.1, SVG Export Plug-In . SVG Version: 6.00 Build 0)  -->
<svg version="1.1" id="Layer_1" xmlns="http://www.w3.org/2000/svg" xmlns:xlink="http://www.w3.org/1999/xlink" x="0px" y="0px"
	 viewBox="0 0 643.7 540.7" style="enable-background:new 0 0 643.7 540.7;" xml:space="preserve">
<style type="text/css">
	.st0{fill:none;stroke:#663434;stroke-width:5;stroke-miterlimit:10;}
	.st1{fill:none;stroke:#EF3B39;stroke-width:5;stroke-miterlimit:10;}
	.st2{fill:#FFFFFF;stroke:#EF3B39;stroke-width:5;stroke-miterlimit:10;}
	.st3{fill:none;stroke:#808285;stroke-width:0.75;stroke-miterlimit:10;stroke-dasharray:6;}
	.st4{fill:none;}
	.st5{fill:#333333;}
	.st6{font-family:'AcuminProCond-Regular';}
	.st7{font-size:17.5479px;}
	.st8{fill:#EF3B39;}
	.st9{font-family:'AcuminProCond-Semibold';}
	.st10{font-size:21.6903px;}
	.st11{fill:#FFFFFF;stroke:#663434;stroke-width:5;stroke-miterlimit:10;}
	.st12{fill:#663434;}
	.st13{fill:#6D6E71;}
	.st14{fill:none;stroke:#666766;stroke-miterlimit:10;}
</style>
<line class="st0" x1="358.7" y1="428.7" x2="358.7" y2="277.4"/>
<line class="st1" x1="154.8" y1="268.7" x2="154.8" y2="164.3"/>
<line class="st1" x1="575.6" y1="161.8" x2="575.6" y2="10.3"/>
<circle class="st2" cx="576.7" cy="85.2" r="18"/>
<line class="st3" x1="28.9" y1="297.5" x2="629.3" y2="297.5"/>
<circle class="st2" cx="154.9" cy="216.7" r="18"/>
<g>
	<rect x="-15.9" y="288.9" class="st4" width="35.6" height="22.3"/>
	<text transform="matrix(1 0 0 1 12.069 301.4162)" class="st5 st6 st7">0</text>
</g>
<g>
	<rect x="-15.9" y="169.5" class="st4" width="35.6" height="22.3"/>
	<text transform="matrix(1 0 0 1 12.4201 181.9254)" class="st5 st6 st7">5</text>
</g>
<line class="st1" x1="358.7" y1="316.5" x2="358.7" y2="205.2"/>
<circle class="st2" cx="358.8" cy="259.4" r="18"/>
<g>
	<rect x="136.8" y="208" class="st4" width="35.6" height="22.3"/>
	<text transform="matrix(1 0 0 1 150.0446 223.4123)" class="st8 st9 st10">3</text>
</g>
<g>
	<rect x="558.8" y="76.6" class="st4" width="35.6" height="22.3"/>
	<text transform="matrix(1 0 0 1 571.899 91.9855)" class="st8 st9 st10">9</text>
</g>
<line class="st0" x1="154.6" y1="505.1" x2="154.6" y2="354.8"/>
<circle class="st11" cx="154.9" cy="429.5" r="18"/>
<line class="st0" x1="575.7" y1="428.7" x2="575.7" y2="277.4"/>
<g>
	<rect x="136.2" y="420.7" class="st4" width="35.6" height="22.3"/>
	<text transform="matrix(1 0 0 1 146.3112 436.1125)" class="st12 st9 st10">-5</text>
</g>
<circle class="st11" cx="575.7" cy="352.9" r="18"/>
<g>
	<rect x="556.8" y="343.8" class="st4" width="35.6" height="22.3"/>
	<text transform="matrix(1 0 0 1 567.1412 359.1828)" class="st12 st9 st10">-2</text>
</g>
<g>
	<rect x="-20.6" y="421.7" class="st4" width="35.6" height="22.3"/>
	<text transform="matrix(1 0 0 1 2.9259 434.2112)" class="st5 st6 st7">-5</text>
</g>
<rect x="-40.6" y="-6.9" class="st4" width="136.6" height="42.8"/>
<g>
	<rect x="340.2" y="251" class="st4" width="35.6" height="22.3"/>
	<text transform="matrix(1 0 0 1 355.0973 266.4123)" class="st8 st9 st10">1</text>
</g>
<g>
	<g>
		<path class="st4" d="M24.5,37.9v11.5h5.3V37.9H24.5z"/>
		<g>
			<polygon class="st13" points="26.7,43.6 27.7,43.6 27.7,43.6 29.7,43.6 27.1,37.9 24.5,43.6 			"/>
		</g>
	</g>
	<g>
		<path class="st4" d="M24.5,519.8v-11.5h5.3v11.5H24.5z"/>
		<g>
			<polygon class="st13" points="26.7,514.1 27.7,514.1 27.7,514.1 29.7,514.1 27.1,519.8 24.5,514.1 			"/>
		</g>
	</g>
	<line class="st14" x1="27.1" y1="43.6" x2="27.1" y2="515.9"/>
</g>
<g>
	<rect x="-18.6" y="49.5" class="st4" width="35.6" height="22.3"/>
	<text transform="matrix(1 0 0 1 4.9167 61.9928)" class="st5 st6 st7">10</text>
</g>
<circle class="st11" cx="358.7" cy="352.9" r="18"/>
<g>
	<rect x="339.8" y="343.8" class="st4" width="35.6" height="22.3"/>
	<text transform="matrix(1 0 0 1 350.1413 359.1828)" class="st12 st9 st10">-2</text>
</g>
</svg>
