<svg id="Layer_1" xmlns="http://www.w3.org/2000/svg" viewBox="0 0 643.7 540.7"><style>.st0,.st1{fill:none;stroke-width:5}.st0{stroke-miterlimit:10;stroke:#663434}.st1{stroke:#ef3b39}.st1,.st2,.st3{stroke-miterlimit:10}.st2{fill:#fff;stroke:#ef3b39;stroke-width:5}.st3{stroke:#808285;stroke-width:.75;stroke-dasharray:6}.st3,.st4{fill:none}.st5{fill:#333}.st6{font-family:&apos;AcuminProCond-Regular&apos;}.st7{font-size:17.5479px}.st8{fill:#ef3b39}.st9{font-family:&apos;AcuminProCond-Semibold&apos;}.st10{font-size:21.6903px}.st11{fill:#fff;stroke:#663434;stroke-width:5;stroke-miterlimit:10}.st12{fill:#663434}.st13{fill:#6d6e71}.st14{fill:none;stroke:#666766;stroke-miterlimit:10}</style><path class="st0" d="M358.7 428.7V277.4"/><path class="st1" d="M154.8 268.7V164.3m420.8-2.5V10.3"/><circle class="st2" cx="576.7" cy="85.2" r="18"/><path class="st3" d="M28.9 297.5h600.4"/><circle class="st2" cx="154.9" cy="216.7" r="18"/><path class="st4" d="M-15.9 288.9h35.6v22.3h-35.6z"/><text transform="translate(12.069 301.416)" class="st5 st6 st7">0</text><path class="st4" d="M-15.9 169.5h35.6v22.3h-35.6z"/><text transform="translate(12.42 181.925)" class="st5 st6 st7">5</text><path class="st1" d="M358.7 316.5V205.2"/><circle class="st2" cx="358.8" cy="259.4" r="18"/><path class="st4" d="M136.8 208h35.6v22.3h-35.6z"/><text transform="translate(150.045 223.412)" class="st8 st9 st10">3</text><path class="st4" d="M558.8 76.6h35.6v22.3h-35.6z"/><text transform="translate(571.899 91.986)" class="st8 st9 st10">9</text><path class="st0" d="M154.6 505.1V354.8"/><circle class="st11" cx="154.9" cy="429.5" r="18"/><path class="st0" d="M575.7 428.7V277.4"/><path class="st4" d="M136.2 420.7h35.6V443h-35.6z"/><text transform="translate(146.311 436.113)" class="st12 st9 st10">-5</text><circle class="st11" cx="575.7" cy="352.9" r="18"/><path class="st4" d="M556.8 343.8h35.6v22.3h-35.6z"/><text transform="translate(567.141 359.183)" class="st12 st9 st10">-2</text><path class="st4" d="M-20.6 421.7H15V444h-35.6z"/><text transform="translate(2.926 434.211)" class="st5 st6 st7">-5</text><path class="st4" d="M-40.6-6.9H96v42.8H-40.6zM340.2 251h35.6v22.3h-35.6z"/><text transform="translate(355.097 266.412)" class="st8 st9 st10">1</text><path class="st4" d="M24.5 37.9v11.5h5.3V37.9h-5.3z"/><path class="st13" d="M26.7 43.6h3l-2.6-5.7-2.6 5.7z"/><path class="st4" d="M24.5 519.8v-11.5h5.3v11.5h-5.3z"/><path class="st13" d="M26.7 514.1h3l-2.6 5.7-2.6-5.7z"/><path class="st14" d="M27.1 43.6v472.3"/><path class="st4" d="M-18.6 49.5H17v22.3h-35.6z"/><text transform="translate(4.917 61.993)" class="st5 st6 st7">10</text><circle class="st11" cx="358.7" cy="352.9" r="18"/><path class="st4" d="M339.8 343.8h35.6v22.3h-35.6z"/><text transform="translate(350.141 359.183)" class="st12 st9 st10">-2</text></svg>