<svg id="Layer_1" xmlns="http://www.w3.org/2000/svg" viewBox="0 0 940.7 731.3"><style>.st0,.st1{fill:none;stroke-width:5}.st0{stroke-miterlimit:10;stroke:#663434}.st1{stroke:#ef3b39}.st1,.st2,.st3{stroke-miterlimit:10}.st2{fill:#fff;stroke:#ef3b39;stroke-width:5}.st3{stroke:#808285;stroke-width:.75;stroke-dasharray:6}.st3,.st4{fill:none}.st5{fill:#333}.st6{font-family:&apos;AcuminProCond-Regular&apos;}.st7{font-size:17.5479px}.st8{fill:#ef3b39}.st9{font-family:&apos;AcuminProCond-Semibold&apos;}.st10{font-size:21.6903px}.st11{fill:#fff;stroke:#663434;stroke-width:5;stroke-miterlimit:10}.st12{fill:#663434}.st13{fill:#6d6e71}.st14{font-size:21.1621px}.st15{fill:#808285}.st16{fill:none;stroke:#666766;stroke-miterlimit:10}.st17{font-size:32.1777px}.st18{font-size:24.1777px}</style><path class="st0" d="M472.3 544.2V392.9"/><path class="st1" d="M268.4 384.2V279.8m420.8-2.5V125.8"/><circle class="st2" cx="690.3" cy="200.7" r="18"/><path class="st3" d="M142.5 413h600.4"/><circle class="st2" cx="268.5" cy="332.2" r="18"/><path class="st4" d="M97.7 404.4h35.6v22.3H97.7z"/><text transform="translate(125.661 416.94)" class="st5 st6 st7">0</text><path class="st4" d="M97.7 285h35.6v22.3H97.7z"/><text transform="translate(126.012 297.449)" class="st5 st6 st7">5</text><path class="st1" d="M472.3 432V320.7"/><circle class="st2" cx="472.4" cy="374.9" r="18"/><path class="st4" d="M250.4 323.5H286v22.3h-35.6z"/><text transform="translate(263.637 338.936)" class="st8 st9 st10">3</text><path class="st4" d="M672.4 192.1H708v22.3h-35.6z"/><text transform="translate(685.491 207.509)" class="st8 st9 st10">9</text><path class="st0" d="M268.2 620.6V470.3"/><circle class="st11" cx="268.5" cy="545" r="18"/><path class="st0" d="M689.3 544.2V392.9"/><path class="st4" d="M249.8 536.2h35.6v22.3h-35.6z"/><text transform="translate(259.903 551.636)" class="st12 st9 st10">-5</text><circle class="st11" cx="689.3" cy="468.4" r="18"/><path class="st4" d="M670.4 459.3H706v22.3h-35.6z"/><text transform="translate(680.733 474.706)" class="st12 st9 st10">-2</text><path class="st4" d="M93 537.2h35.6v22.3H93z"/><text transform="translate(116.518 549.735)" class="st5 st6 st7">-5</text><path class="st4" d="M190.6 678.3h153.2v44.2H190.6z"/><text transform="translate(239.836 693.317)"><tspan x="0" y="0" class="st13 st9 st14">Control</tspan><tspan x="-45.5" y="25.4" class="st13 st9 st14"> (Voluntary Appeal)</tspan></text><path class="st4" d="M384.8 679.3h175.8v44.2H384.8z"/><text transform="translate(424.324 694.341)"><tspan x="0" y="0" class="st13 st9 st14">Treatment #1</tspan><tspan x="-37" y="25.4" class="st13 st9 st14">(Free Cholesterol Test)</tspan></text><path class="st4" d="M606.8 679.3h164.1v44.2H606.8z"/><text transform="translate(638.972 694.341)"><tspan x="0" y="0" class="st13 st9 st14">Treatment #2</tspan><tspan x="-28" y="25.4" class="st13 st9 st14">(Free Lottery Ticket )</tspan></text><path class="st4" d="M746.6 428.6h185.8v49.3H746.6z"/><text transform="translate(746.589 444.044)" class="st12 st9 st10">Frequent blood donors</text><path class="st4" d="M746.5 159h215.3v49.3H746.5z"/><text transform="translate(746.493 174.465)" class="st8 st9 st10">Infrequent blood donors</text><path class="st12" d="M714.8 469.7c13.6-1.2 25.5-8.3 33.6-19.3.5-.6-.6-1.3-1.1-.6-7.8 10.5-19.4 17.5-32.5 18.7-.8 0-.8 1.2 0 1.2z"/><path class="st4" d="M71.2 636.3h136.6v49.3H71.2z"/><text transform="translate(93.014 651.342)"><tspan x="0" y="0" class="st13 st9 st14">Fewer blood </tspan><tspan x="8.8" y="25.4" class="st13 st9 st14">donations</tspan></text><path class="st4" d="M73 108.6h136.6v42.8H73z"/><text transform="translate(99.084 123.644)"><tspan x="0" y="0" class="st13 st9 st14">More blood </tspan><tspan x="4.6" y="25.4" class="st13 st9 st14">donations</tspan></text><path class="st4" d="M453.8 366.5h35.6v22.3h-35.6z"/><text transform="translate(468.69 381.936)" class="st8 st9 st10">1</text><path class="st4" d="M8.5 349h127.4v94.5H8.5z"/><text transform="translate(8.454 361.478)"><tspan x="0" y="0" class="st5 st6 st7">% change</tspan><tspan x="0" y="21.1" class="st5 st6 st7"> (pre/post)</tspan></text><path class="st15" d="M105 409.9c-13.1-1.1-24.7-8.1-32.5-18.7-.5-.6-1.6 0-1.1.6 8.1 10.9 20 18.1 33.6 19.3.8.1.8-1.1 0-1.2z"/><path class="st4" d="M138.1 153.4v11.5h5.3v-11.5h-5.3z"/><path class="st13" d="M140.3 159.1h3l-2.6-5.7-2.6 5.7h2.2z"/><path class="st4" d="M138.1 635.3v-11.5h5.3v11.5h-5.3z"/><path class="st13" d="M140.3 629.6h3l-2.6 5.7-2.6-5.7h2.2z"/><path class="st16" d="M140.7 159.1v472.3"/><path class="st8" d="M714.4 198.9c13.6-1.2 25.5-8.3 33.6-19.3.5-.6-.6-1.3-1.1-.6-7.8 10.5-19.4 17.5-32.5 18.7-.7.1-.8 1.3 0 1.2z"/><path class="st4" d="M95 165h35.6v22.3H95z"/><text transform="translate(118.509 177.516)" class="st5 st6 st7">10</text><path class="st4" d="M139.3 6h779.1v44.6H139.3z"/><text transform="translate(139.275 28.854)" class="st5 st9 st17">A Randomized Controlled Trial to Increase Blood Donations</text><path class="st4" d="M139.3 58h779.1v44.6H139.3z"/><text transform="translate(139.275 75.166)" class="st5 st9 st18">Financial incentives can increase donations, but only among infrequent donors</text><circle class="st11" cx="472.3" cy="468.4" r="18"/><path class="st4" d="M453.4 459.3H489v22.3h-35.6z"/><text transform="translate(463.733 474.706)" class="st12 st9 st10">-2</text></svg>